<?xml version="1.0" standalone="no"?>
<!DOCTYPE svg PUBLIC "-//W3C//DTD SVG 20010904//EN"
 "http://www.w3.org/TR/2001/REC-SVG-20010904/DTD/svg10.dtd">
<svg version="1.0" xmlns="http://www.w3.org/2000/svg"
 width="1010.000000pt" height="680.000000pt" viewBox="0 0 1010.000000 680.000000"
 preserveAspectRatio="xMidYMid meet">

<g transform="translate(0.000000,680.000000) scale(0.100000,-0.100000)"
fill="#000000" stroke="none">
<path d="M6609 6683 l-156 -3 -7 -68 c-3 -37 -6 -185 -6 -329 l0 -262 38 -35
c78 -73 267 -219 299 -233 59 -24 106 -4 217 94 127 112 355 241 530 298 160
52 276 69 471 68 301 0 414 -43 470 -176 56 -134 -52 -287 -202 -287 -45 0
-142 -36 -468 -176 -318 -136 -321 -138 -378 -233 -15 -25 -127 -345 -249
-711 -169 -508 -221 -677 -222 -715 0 -94 56 -155 150 -163 45 -4 61 0 100 23
82 48 561 412 580 441 11 15 39 47 63 71 l44 43 -28 30 -29 30 25 26 c42 46
351 304 363 304 7 0 25 -13 41 -30 16 -16 32 -30 36 -30 4 0 24 23 45 51 36
49 38 56 43 148 l6 96 323 9 324 9 -4 847 c-2 467 -7 852 -11 857 -8 8 -2082
13 -2408 6z m2089 -75 c19 -19 14 -46 -8 -53 -22 -7 -50 9 -50 29 0 15 20 36
35 36 6 0 16 -5 23 -12z m-1875 -19 c14 -22 2 -49 -22 -49 -26 0 -42 29 -29
53 11 21 36 19 51 -4z m21 -645 c17 -45 2 -94 -29 -94 -24 0 -35 17 -35 55 0
38 11 55 35 55 13 0 26 -7 29 -16z m754 -686 c2 -19 -2 -28 -18 -33 -24 -8
-50 10 -50 35 0 24 10 31 40 28 19 -2 26 -10 28 -30z m-455 -1317 c-1 -25 -9
-51 -18 -60 -15 -15 -17 -14 -31 3 -15 21 -19 87 -7 100 4 4 19 6 33 4 23 -3
25 -7 23 -47z"/>
<path d="M176 6534 c-15 -40 -28 -285 -29 -559 0 -334 12 -463 64 -678 55
-228 173 -585 195 -594 12 -4 1596 623 1634 647 11 7 12 15 5 34 -24 62 -386
453 -488 527 -40 29 -214 89 -857 294 -200 64 -383 126 -407 137 -48 23 -77
72 -88 151 -8 51 -19 67 -29 41z m282 -686 c3 -22 -2 -29 -22 -34 -30 -7 -56
10 -56 36 0 25 11 31 45 28 24 -2 31 -8 33 -30z m1127 -123 c0 -35 -31 -47
-51 -20 -18 25 0 57 29 53 17 -2 22 -10 22 -33z m-566 -581 c28 -35 35 -62 21
-79 -23 -28 -49 -17 -72 29 -18 37 -19 47 -8 60 18 23 36 20 59 -10z"/>
<path d="M1853 6490 c-58 -24 -64 -90 -13 -133 20 -18 61 -100 149 -307 67
-156 128 -307 136 -336 7 -29 18 -61 24 -72 15 -27 69 -72 88 -72 17 0 89 50
231 159 l93 72 -22 30 c-53 75 -242 265 -501 504 -42 39 -67 70 -71 90 -3 17
-12 38 -19 47 -16 22 -65 31 -95 18z m58 -56 c9 -11 10 -20 2 -32 -13 -22 -43
-22 -56 -1 -24 38 25 68 54 33z m380 -695 c34 -37 36 -54 8 -70 -18 -9 -25 -7
-50 17 -16 15 -31 36 -35 46 -14 47 35 51 77 7z"/>
<path d="M4040 6419 c-228 -3 -459 -7 -512 -8 l-98 -1 0 -53 c0 -106 13 -239
24 -242 6 -2 23 -6 39 -9 20 -5 27 -12 27 -30 0 -25 -17 -36 -56 -36 l-24 0 0
-122 c0 -379 21 -2590 26 -2625 4 -35 9 -43 25 -43 29 0 59 -18 59 -35 0 -18
-31 -35 -64 -35 -24 0 -26 -3 -26 -48 0 -27 3 -97 7 -155 l6 -107 213 0 212 0
32 26 c44 38 56 67 84 205 31 154 45 294 34 336 -9 32 -45 76 -85 103 l-22 15
79 635 c44 349 82 649 85 665 5 27 9 30 44 31 49 2 113 37 136 76 25 42 17 80
-50 248 -42 105 -60 164 -65 216 -7 68 -31 145 -180 564 -37 105 -50 154 -46
179 11 72 84 141 167 156 70 13 162 -29 206 -93 12 -18 61 -151 109 -295 48
-144 111 -323 140 -398 29 -75 67 -188 85 -250 45 -162 48 -169 85 -186 41
-20 82 -6 108 38 22 37 10 75 -33 107 -56 41 -131 354 -167 692 -4 36 -9 160
-13 275 l-6 210 -40 0 c-38 0 -40 -2 -45 -34 -7 -45 -35 -64 -56 -37 -8 11
-14 30 -14 42 0 13 -3 24 -7 26 -5 2 -195 0 -423 -3z m758 -1231 c7 -7 12 -18
12 -25 0 -17 -35 -34 -54 -27 -16 6 -22 45 -9 57 10 11 38 8 51 -5z m-618
-127 c17 -33 12 -89 -9 -101 -29 -15 -51 12 -51 64 0 23 3 46 7 49 13 14 43 7
53 -12z m-232 -1655 c6 -47 -6 -75 -34 -82 -33 -8 -44 7 -44 62 0 49 6 56 45
52 25 -2 31 -8 33 -32z"/>
<path d="M5726 6230 l-168 -5 -24 -84 c-30 -102 -111 -305 -170 -423 -36 -72
-50 -90 -85 -110 -93 -52 -103 -175 -20 -249 36 -33 39 -40 45 -105 7 -83 56
-1143 59 -1297 l2 -109 -39 -13 c-53 -19 -86 -53 -97 -105 -15 -64 37 -819 62
-913 28 -105 56 -116 311 -130 109 -5 201 -7 204 -4 3 3 8 55 11 116 l6 111
-31 0 c-43 0 -62 9 -62 30 0 20 19 30 55 30 13 0 27 5 31 11 19 32 94 2386 94
2977 l0 72 -29 0 c-32 0 -56 22 -47 45 3 10 19 15 46 15 l41 0 -3 72 c-2 39
-7 72 -13 72 -5 1 -86 -1 -179 -4z m-332 -736 c22 -21 20 -41 -4 -54 -40 -22
-80 26 -48 58 16 16 33 15 52 -4z m-6 -1736 c7 -7 12 -31 12 -54 0 -34 -4 -44
-20 -49 -32 -10 -50 12 -50 60 0 23 3 45 7 48 10 11 38 8 51 -5z"/>
<path d="M6566 5587 c-24 -23 -36 -47 -44 -84 -21 -94 -127 -1086 -137 -1278
-6 -99 -5 -113 14 -142 53 -84 204 -89 256 -9 9 13 19 47 24 74 5 32 23 74 48
114 108 168 329 593 376 725 26 72 66 336 55 365 -3 7 -130 71 -282 140 l-276
126 -34 -31z m138 -53 c18 -48 -6 -113 -38 -101 -19 8 -23 86 -4 105 17 17 35
15 42 -4z m-156 -1356 c29 -29 -10 -68 -48 -48 -32 17 -18 60 20 60 9 0 21 -5
28 -12z"/>
<path d="M2412 5533 c-37 -7 -98 -77 -110 -125 -23 -92 -203 -1395 -199 -1439
11 -119 138 -176 260 -115 68 34 443 307 483 352 40 43 48 86 34 166 -15 85
-215 945 -240 1033 -11 38 -30 80 -43 93 -35 34 -112 49 -185 35z m88 -138
c26 -32 -13 -81 -47 -59 -35 22 -23 74 17 74 10 0 23 -7 30 -15z m-192 -1377
c29 -29 -10 -68 -48 -48 -32 17 -18 60 20 60 9 0 21 -5 28 -12z"/>
<path d="M1667 5074 c-3 -3 1 -29 10 -57 18 -62 7 -110 -38 -161 -35 -41 -24
-37 -759 -265 -642 -199 -596 -183 -592 -212 1 -13 5 -151 8 -306 6 -247 9
-282 23 -286 486 -141 1007 -287 1021 -287 39 0 259 343 399 620 122 244 302
695 286 720 -5 8 -300 211 -331 228 -12 6 -24 9 -27 6z m26 -525 c15 -24 1
-49 -26 -49 -35 0 -52 23 -37 50 13 24 47 24 63 -1z m-1175 -221 c30 -30 -6
-76 -48 -63 -37 12 -19 75 20 75 9 0 21 -5 28 -12z m582 -563 c10 -12 9 -24
-5 -60 -9 -25 -23 -45 -30 -45 -46 0 -58 36 -30 90 17 33 45 39 65 15z"/>
<path d="M8615 4646 c-16 -7 -237 -193 -489 -412 -724 -629 -696 -601 -696
-683 0 -64 27 -111 80 -138 65 -33 120 -30 247 16 208 75 903 340 941 360 73
37 102 87 121 207 18 116 45 489 37 527 -8 42 -54 100 -97 123 -35 17 -104 18
-144 0z m99 -148 c16 -27 -14 -54 -43 -39 -21 11 -28 41 -14 55 12 12 45 2 57
-16z m-1080 -927 c25 -28 5 -63 -32 -59 -30 3 -42 39 -22 64 17 19 34 18 54
-5z"/>
<path d="M4316 4623 l-88 -4 7 -52 c3 -29 13 -100 21 -158 36 -277 36 -754 -1
-1139 -23 -249 -23 -248 -55 -265 -52 -27 -60 -107 -15 -145 22 -18 78 -18
101 0 9 8 60 66 112 128 52 63 142 163 200 223 l105 110 152 387 c170 434 206
534 230 642 10 41 33 115 51 164 19 50 32 96 30 103 -4 10 -79 13 -383 11
-208 -1 -418 -4 -467 -5z m629 -313 c0 -54 0 -55 -30 -55 -28 0 -30 3 -33 44
-4 60 2 73 35 69 27 -3 28 -5 28 -58z m-404 -196 c9 -11 10 -20 2 -32 -24 -39
-82 -15 -68 28 8 24 47 27 66 4z m-277 -1169 c9 -25 -5 -45 -30 -45 -26 0 -40
20 -30 45 3 8 16 15 30 15 13 0 26 -7 30 -15z"/>
<path d="M1895 3449 c-1330 -42 -1482 -49 -1529 -70 -64 -30 -78 -96 -89 -435
l-5 -141 497 -6 c273 -4 835 -12 1249 -18 490 -7 757 -8 763 -2 6 6 11 127 12
299 2 260 0 292 -16 321 -33 61 -45 63 -359 61 -156 0 -391 -5 -523 -9z
m-1425 -174 c26 -32 -13 -81 -47 -59 -35 22 -23 74 17 74 10 0 23 -7 30 -15z
m1928 -84 c3 -15 -3 -30 -13 -37 -24 -18 -65 2 -65 31 0 30 9 36 45 33 23 -2
31 -8 33 -27z m-1743 -267 c19 -20 16 -43 -7 -58 -38 -23 -78 35 -42 61 23 17
29 16 49 -3z m1786 -24 c25 -14 24 -46 -1 -60 -40 -22 -80 26 -48 58 15 15 24
15 49 2z"/>
<path d="M9820 2725 c-7 -9 -52 -42 -100 -74 -148 -99 -327 -150 -484 -137
-45 4 -270 27 -501 51 -945 99 -1012 105 -1058 84 -25 -11 -57 -57 -57 -81 0
-7 30 -76 67 -153 61 -126 68 -146 67 -200 0 -39 -7 -76 -21 -105 -55 -120
-343 -392 -763 -720 -195 -152 -311 -226 -538 -345 -106 -54 -192 -103 -192
-107 0 -5 33 -43 73 -86 64 -69 563 -628 627 -703 l25 -30 122 98 122 97 -19
26 c-44 62 -11 94 47 46 l31 -26 43 38 c24 21 116 96 204 167 88 71 210 170
270 220 61 50 233 191 383 313 149 123 272 229 272 236 0 7 -9 21 -20 31 -25
23 -25 41 -1 55 16 8 26 5 50 -16 17 -14 37 -24 44 -21 6 3 222 178 478 388
256 211 520 429 587 484 l122 99 -32 33 c-26 27 -29 35 -18 48 18 22 43 18 69
-11 l22 -25 47 37 c26 21 79 65 117 98 39 33 74 63 78 67 11 9 -114 139 -134
139 -9 0 -22 -7 -29 -15z m-2069 -125 c25 -14 24 -46 -1 -60 -40 -22 -80 26
-48 58 15 15 24 15 49 2z m-907 -1636 c9 -8 16 -19 16 -24 0 -15 -70 -70 -90
-70 -44 0 -36 60 13 90 39 24 41 24 61 4z"/>
<path d="M2345 2552 c-216 -24 -263 -25 -760 -26 l-531 -1 -42 -34 -43 -33
-347 11 c-191 6 -355 11 -364 11 -23 0 -26 -21 -38 -335 -6 -148 -17 -434 -25
-635 -37 -914 -45 -1134 -39 -1139 3 -3 155 -11 337 -17 183 -7 410 -15 505
-19 l172 -7 0 30 c0 21 7 35 21 42 27 15 49 -3 49 -42 0 -16 6 -30 13 -33 6
-2 431 -20 942 -39 512 -20 985 -39 1053 -42 l122 -6 0 25 c0 40 10 57 36 57
24 0 36 -24 31 -65 -2 -19 7 -20 258 -32 143 -7 604 -28 1025 -47 421 -20 784
-38 807 -41 39 -6 43 -4 48 19 3 14 7 38 10 52 4 19 11 25 28 22 19 -3 22 -10
25 -49 l3 -47 137 -6 c75 -4 153 -9 173 -12 l36 -5 7 218 c3 120 13 380 21
578 8 198 15 370 15 383 0 20 -5 22 -54 22 -210 0 -748 109 -1082 219 -527
174 -837 357 -1110 657 -49 54 -125 136 -169 183 l-80 86 -170 1 c-165 1 -476
27 -519 44 -11 4 -39 24 -60 44 -40 36 -40 36 -125 35 -48 -1 -189 -13 -316
-27z m-1278 -189 c38 -32 95 -80 128 -108 l60 -51 420 -17 c508 -22 1132 -54
1199 -63 65 -8 106 -47 106 -98 0 -46 -32 -82 -94 -104 l-49 -17 -54 -125
c-30 -69 -92 -208 -138 -310 -46 -102 -113 -252 -150 -335 -176 -394 -275
-614 -295 -659 l-22 -48 -91 6 c-51 3 -218 11 -372 16 -504 19 -574 29 -738
111 -154 77 -249 155 -346 283 -80 107 -124 206 -146 331 -25 145 -15 282 33
440 l18 60 -58 53 c-32 30 -58 59 -58 64 0 11 81 102 320 358 80 86 167 181
194 213 28 31 53 57 58 57 4 0 38 -26 75 -57z m974 47 c23 -13 25 -46 3 -54
-9 -3 -31 -6 -49 -6 -46 0 -65 9 -65 31 0 34 67 52 111 29z m1463 -76 c9 -3
16 -16 16 -29 0 -26 -17 -35 -65 -35 -18 0 -40 3 -49 6 -16 6 -22 45 -9 57 8
9 86 9 107 1z m-3149 -375 c11 -33 -17 -56 -50 -41 -14 6 -25 18 -25 25 0 38
64 52 75 16z m4017 -734 c8 -19 8 -28 -2 -40 -16 -20 -33 -19 -60 3 -19 16
-21 22 -11 40 16 31 58 29 73 -3z m1281 -304 c5 -5 7 -19 5 -32 -2 -18 -10
-25 -34 -27 -63 -6 -111 31 -83 64 10 12 24 15 58 10 25 -3 49 -10 54 -15z"/>
</g>
</svg>
